<svg version="1.1" id="Layer_1" xmlns="http://www.w3.org/2000/svg" xmlns:xlink="http://www.w3.org/1999/xlink" x="0px" y="0px"
	 width="100%" viewBox="0 0 390 100" enable-background="new 0 0 390 100" xml:space="preserve">
<path fill="#EFEFEF" opacity="1.000000" stroke="none" 
	d="
M304.000000,101.000000 
	C202.666672,101.000000 101.833359,101.000000 1.000027,101.000000 
	C1.000018,67.666679 1.000018,34.333366 1.000009,1.000036 
	C130.999969,1.000024 260.999939,1.000024 390.999939,1.000012 
	C390.999939,34.333298 390.999939,67.666595 390.999969,100.999947 
	C362.166656,101.000000 333.333344,101.000000 304.000000,101.000000 
M3.950512,11.546976 
	C3.950512,40.656620 3.950512,69.766258 3.950512,98.842415 
	C132.758011,98.842415 261.085327,98.842415 389.427979,98.842415 
	C389.427979,67.042091 389.427979,35.628647 389.427979,4.234103 
	C260.790771,4.234103 132.445068,4.234103 3.950512,4.234103 
	C3.950512,6.580691 3.950512,8.569732 3.950512,11.546976 
z"/>
<path fill="#272727" opacity="1.000000" stroke="none" 
	d="
M3.950512,11.052875 
	C3.950512,8.569732 3.950512,6.580691 3.950512,4.234103 
	C132.445068,4.234103 260.790771,4.234103 389.427979,4.234103 
	C389.427979,35.628647 389.427979,67.042091 389.427979,98.842415 
	C261.085327,98.842415 132.758011,98.842415 3.950512,98.842415 
	C3.950512,69.766258 3.950512,40.656620 3.950512,11.052875 
M225.499847,96.347824 
	C279.122498,96.347824 332.745148,96.347824 386.491638,96.347824 
	C386.491638,66.239044 386.491638,36.680099 386.491638,6.887074 
	C259.973602,6.887074 133.717285,6.887074 7.244724,6.887074 
	C7.244724,36.703598 7.244724,66.424629 7.244724,96.347878 
	C79.869034,96.347878 152.184433,96.347878 225.499847,96.347824 
z"/>
<path fill="#FEFCFC" opacity="1.000000" stroke="none" 
	d="
M224.999847,96.347855 
	C152.184433,96.347878 79.869034,96.347878 7.244724,96.347878 
	C7.244724,66.424629 7.244724,36.703598 7.244724,6.887074 
	C133.717285,6.887074 259.973602,6.887074 386.491638,6.887074 
	C386.491638,36.680099 386.491638,66.239044 386.491638,96.347824 
	C332.745148,96.347824 279.122498,96.347824 224.999847,96.347855 
M287.507172,63.864697 
	C287.578186,63.584007 287.649170,63.303314 287.890900,62.225502 
	C287.833984,61.144684 287.777069,60.063869 287.861115,58.493973 
	C287.578491,58.392399 287.295868,58.290821 286.211823,57.968555 
	C283.294281,56.840103 281.506226,52.267292 283.316345,50.161221 
	C284.591797,49.976978 285.993195,49.774548 287.667023,49.532761 
	C287.575867,47.650772 287.498932,46.062443 287.421661,44.466980 
	C285.671875,44.192760 284.273743,43.973652 283.022430,43.777546 
	C282.807617,42.007332 282.634125,40.577629 282.465179,39.185211 
	C280.540863,39.185211 278.916443,39.185211 277.013428,39.185211 
	C277.290833,43.326725 275.154907,44.287586 271.488617,44.200706 
	C266.455688,44.081429 261.408264,44.572662 256.248657,44.807682 
	C256.248657,50.923405 256.248657,57.338005 256.248657,63.799835 
	C258.594940,63.799835 260.683868,63.799835 262.747589,63.799835 
	C264.163483,50.312687 265.622589,48.773163 275.200989,50.473927 
	C276.445374,63.415504 277.292572,64.371063 287.507172,63.864697 
M93.500000,12.944568 
	C66.939415,12.944568 40.378826,12.944568 13.836660,12.944568 
	C13.836660,39.355263 13.836660,64.960526 13.836660,90.715683 
	C76.726669,90.715683 139.385132,90.715683 202.005234,90.715683 
	C202.005234,64.697662 202.005234,39.089333 202.005234,12.944557 
	C166.027832,12.944557 130.263916,12.944557 93.500000,12.944568 
M226.121277,52.231968 
	C228.400513,44.922344 226.000763,39.178787 219.623993,38.255585 
	C214.982315,37.583580 210.165070,38.124214 205.442307,38.124214 
	C205.442307,46.955475 205.442307,55.356850 205.442307,63.794388 
	C207.993729,63.794388 210.256592,63.794388 212.700439,63.794388 
	C212.864365,61.667564 213.013474,59.732956 213.162582,57.798347 
	C213.451706,58.219643 213.740845,58.640938 214.029984,59.062233 
	C217.953491,57.026890 221.877014,54.991547 226.121277,52.231968 
M309.947906,60.355446 
	C311.090363,61.283497 312.120483,62.421368 313.394653,63.103279 
	C318.912567,66.056374 326.420898,64.369232 329.354370,59.640045 
	C332.230988,55.002522 331.152527,49.004005 326.882111,45.889076 
	C322.768646,42.888630 315.398071,43.041451 311.509613,46.207798 
	C307.645508,49.354317 306.980774,53.788567 309.947906,60.355446 
M229.536270,51.310432 
	C228.400040,55.991951 229.611908,59.991703 233.675446,62.575676 
	C238.052353,65.358925 242.853470,65.328247 247.355942,62.798702 
	C251.232864,60.620594 252.559113,56.927681 252.016525,52.621552 
	C251.400772,47.734756 248.389664,44.944077 243.708084,44.003960 
	C237.159180,42.688862 232.770172,44.836308 229.536270,51.310432 
M357.925385,51.970570 
	C357.681732,59.407604 360.328979,63.149277 366.613037,64.249947 
	C373.002960,65.369148 378.336212,62.720612 380.063507,57.570335 
	C381.929810,52.005508 379.443817,46.591759 374.072327,44.523300 
	C367.290344,41.911697 361.231567,44.418072 357.925385,51.970570 
M304.362335,44.121700 
	C303.197296,43.965794 302.032288,43.809883 300.867249,43.653976 
	C300.779175,43.199554 300.691101,42.745136 300.602997,42.290714 
	C302.324219,41.576904 304.045441,40.863091 306.173798,39.980434 
	C306.119110,38.755127 306.049255,37.189251 305.981842,35.678593 
	C298.384369,34.975277 295.451202,36.316013 294.037811,40.488743 
	C293.461029,42.191505 292.195709,43.661030 291.243652,45.236671 
	C290.895203,45.074955 290.546753,44.913242 290.198303,44.751526 
	C290.198303,46.354675 290.198303,47.957821 290.198303,49.810532 
	C295.416931,49.246075 293.683716,52.952568 293.815887,55.410839 
	C293.964386,58.172684 293.850037,60.948662 293.850037,63.820435 
	C296.424011,63.820435 298.501678,63.820435 300.933899,63.820435 
	C300.933899,59.227028 300.933899,54.803566 300.933899,50.209969 
	C302.801422,49.979740 304.347351,49.789162 306.401459,49.535934 
	C305.975800,47.549820 305.614929,45.865852 304.362335,44.121700 
M341.857788,38.895504 
	C341.224945,33.406322 337.258514,37.389874 334.720398,35.925804 
	C334.720398,45.514462 334.720398,54.546097 334.720398,63.799885 
	C337.037476,63.799885 339.250275,63.799885 341.859131,63.799885 
	C341.859131,55.646481 341.859131,47.736900 341.857788,38.895504 
M351.378204,44.123775 
	C349.951294,44.205132 348.524384,44.286488 347.184448,44.362881 
	C347.184448,51.130932 347.184448,57.509861 347.184448,63.709023 
	C349.604156,63.709023 351.678497,63.709023 353.976776,63.709023 
	C353.976776,57.789009 354.043640,52.160332 353.902466,46.536880 
	C353.881989,45.722370 352.863983,44.932903 351.378204,44.123775 
M354.296112,38.850540 
	C355.143829,34.905033 353.228455,33.065987 349.546631,33.502651 
	C348.304230,33.650002 346.591492,35.362209 346.322266,36.621830 
	C346.055359,37.870762 347.222839,40.591465 347.960083,40.664692 
	C349.932739,40.860630 352.011993,39.983299 354.296112,38.850540 
z"/>
<path fill="#FF3232" opacity="1.000000" stroke="none" 
	d="
M94.000000,12.944563 
	C130.263916,12.944557 166.027832,12.944557 202.005234,12.944557 
	C202.005234,39.089333 202.005234,64.697662 202.005234,90.715683 
	C139.385132,90.715683 76.726669,90.715683 13.836660,90.715683 
	C13.836660,64.960526 13.836660,39.355263 13.836660,12.944568 
	C40.378826,12.944568 66.939415,12.944568 94.000000,12.944563 
M168.153015,48.525860 
	C168.153015,45.073887 168.153015,41.621914 168.153015,36.771526 
	C160.981949,40.760181 159.817032,48.393867 154.917252,52.426311 
	C149.918457,48.093735 148.877731,40.477222 141.529648,37.143620 
	C141.529648,46.003826 141.454544,53.497154 141.611374,60.985630 
	C141.634644,62.097088 142.751724,63.185642 143.362762,64.284790 
	C143.958511,64.057564 144.554245,63.830338 145.149994,63.603111 
	C145.149994,57.618656 145.149994,51.634201 145.149994,44.465000 
	C148.003403,48.758381 150.118500,51.932682 152.224884,55.112755 
	C154.016174,57.817112 155.766769,57.793743 157.554779,55.093552 
	C159.705032,51.846329 161.892746,48.623909 164.064240,45.390751 
	C164.948105,50.968643 164.878784,56.229706 165.018646,61.485199 
	C165.041077,62.328129 165.998520,63.146179 166.523712,63.975735 
	C167.064590,63.155365 168.037613,62.353062 168.072784,61.511559 
	C168.239685,57.519005 168.150833,53.515762 168.153015,48.525860 
M37.144592,54.770340 
	C37.147152,56.930679 36.958477,59.116150 37.237640,61.240131 
	C37.365997,62.216747 38.411518,63.072815 39.041153,63.983543 
	C39.548698,63.113544 40.418266,62.275089 40.497337,61.367748 
	C40.756287,58.396275 40.604744,55.389919 40.842491,52.415474 
	C41.106705,49.109886 43.248993,46.695248 46.330349,47.460125 
	C48.243668,47.935059 50.344532,50.658077 50.926487,52.767822 
	C51.738705,55.712292 51.113411,59.033371 51.337154,62.176643 
	C51.382736,62.817051 52.387676,63.549042 53.114059,63.887508 
	C53.343666,63.994499 54.565704,62.946243 54.552490,62.447369 
	C54.434330,57.985882 54.724506,53.395111 53.739819,49.107578 
	C52.706818,44.609684 47.648102,42.851505 43.219959,44.724861 
	C41.764935,45.340424 40.456810,46.303211 38.831211,47.253540 
	C34.495514,40.580605 28.496456,46.866112 23.514357,44.645168 
	C21.979650,58.080513 22.706703,63.311111 26.482687,63.654739 
	C26.482687,60.483814 26.388435,57.345280 26.507473,54.214859 
	C26.644262,50.617622 27.724190,47.285534 32.001991,47.304478 
	C35.989967,47.322136 37.133976,50.341118 37.144592,54.770340 
M117.221153,57.830456 
	C118.306633,57.121574 119.359245,55.869267 120.483490,55.801262 
	C124.567635,55.554218 128.675766,55.703808 132.735855,55.703808 
	C133.001465,48.824055 129.952530,44.787704 124.487923,44.090046 
	C118.999031,43.389294 114.287735,46.884094 113.261475,52.417747 
	C112.328629,57.447701 115.200066,62.545494 119.784492,63.998390 
	C125.044456,65.665375 129.896744,63.489483 132.063461,57.812645 
	C127.054008,59.486912 122.335571,64.488533 117.221153,57.830456 
M74.767601,47.701256 
	C75.652954,48.961994 76.538307,50.222736 77.888702,52.145683 
	C73.663902,52.448639 70.465637,52.036541 67.840416,53.074215 
	C65.829712,53.868984 63.294182,56.485573 63.280708,58.308769 
	C63.266899,60.178185 65.720551,62.592228 67.690407,63.775341 
	C69.140793,64.646446 71.559380,64.031769 73.530441,63.875767 
	C75.694511,63.704487 77.840118,63.299999 80.601166,62.911709 
	C80.601166,59.330742 80.944450,54.892006 80.503487,50.532597 
	C80.072685,46.273685 76.820953,44.345966 72.823448,44.097931 
	C68.754463,43.845463 65.708603,45.528542 63.866123,49.952545 
	C67.731079,48.965389 70.882866,48.160385 74.767601,47.701256 
M191.293259,46.916935 
	C189.750427,50.827343 188.207611,54.737751 186.534561,58.978210 
	C182.592499,54.282547 182.494583,47.404732 176.611053,44.697437 
	C178.371872,50.305325 180.869492,55.444939 183.287247,60.621857 
	C185.306412,64.945312 184.449097,66.809509 180.082352,68.428108 
	C179.245468,68.738297 178.657761,69.720650 177.955093,70.392914 
	C178.925491,70.748383 180.017044,71.573364 180.840836,71.360756 
	C182.513184,70.929192 184.923660,70.339127 185.484360,69.109612 
	C189.069412,61.247932 192.234680,53.194839 195.538055,45.204716 
	C195.080750,44.883545 194.623444,44.562378 194.166122,44.241211 
	C193.323181,44.917366 192.480240,45.593525 191.293259,46.916935 
M96.998657,55.664833 
	C98.616783,57.692780 100.111565,59.838974 101.899643,61.703987 
	C102.958794,62.808712 104.480995,63.469498 105.794991,64.329903 
	C106.031250,63.980419 106.267517,63.630928 106.503784,63.281441 
	C104.781143,60.452480 103.058502,57.623524 101.535080,55.121716 
	C103.120079,51.643757 104.585075,48.429142 106.050064,45.214527 
	C105.529182,44.852890 105.008308,44.491257 104.487427,44.129623 
	C103.520805,45.359501 102.177101,46.449570 101.659409,47.845886 
	C100.200546,51.780670 97.648590,53.295872 93.618904,52.427429 
	C91.681625,47.174351 95.027008,41.071945 90.837296,36.261639 
	C89.977470,43.936710 89.882072,51.528049 90.053429,59.113361 
	C90.090195,60.740623 91.092293,62.346085 91.649696,63.961590 
	C92.130486,62.426804 92.965118,60.901939 93.008476,59.354897 
	C93.072243,57.079617 93.239571,55.342129 96.998657,55.664833 
z"/>
<path fill="#070707" opacity="1.000000" stroke="none" 
	d="
M287.720184,58.983051 
	C287.777069,60.063869 287.833984,61.144684 287.649780,62.714005 
	C287.220398,63.361897 287.087311,63.558582 287.009308,63.792557 
	C277.292572,64.371063 276.445374,63.415504 275.200989,50.473927 
	C265.622589,48.773163 264.163483,50.312687 262.747589,63.799835 
	C260.683868,63.799835 258.594940,63.799835 256.248657,63.799835 
	C256.248657,57.338005 256.248657,50.923405 256.248657,44.807682 
	C261.408264,44.572662 266.455688,44.081429 271.488617,44.200706 
	C275.154907,44.287586 277.290833,43.326725 277.013428,39.185211 
	C278.916443,39.185211 280.540863,39.185211 282.465179,39.185211 
	C282.634125,40.577629 282.807617,42.007332 283.022430,43.777546 
	C284.273743,43.973652 285.671875,44.192760 287.421661,44.466980 
	C287.498932,46.062443 287.575867,47.650772 287.667023,49.532761 
	C285.993195,49.774548 284.591797,49.976978 283.316345,50.161221 
	C281.506226,52.267292 283.294281,56.840103 286.689545,58.244339 
	C287.303955,58.731266 287.488281,58.885574 287.720184,58.983051 
z"/>
<path fill="#0A0A0A" opacity="1.000000" stroke="none" 
	d="
M225.960907,52.594086 
	C221.877014,54.991547 217.953491,57.026890 214.029984,59.062233 
	C213.740845,58.640938 213.451706,58.219643 213.162582,57.798347 
	C213.013474,59.732956 212.864365,61.667564 212.700439,63.794388 
	C210.256592,63.794388 207.993729,63.794388 205.442307,63.794388 
	C205.442307,55.356850 205.442307,46.955475 205.442307,38.124214 
	C210.165070,38.124214 214.982315,37.583580 219.623993,38.255585 
	C226.000763,39.178787 228.400513,44.922344 225.960907,52.594086 
M212.845993,47.613861 
	C213.660797,48.782200 214.475586,49.950539 215.290375,51.118870 
	C216.672409,50.038261 218.054443,48.957653 219.436478,47.877052 
	C218.361618,46.649040 217.509872,44.937420 216.156509,44.313103 
	C214.389511,43.497967 212.495132,43.904079 212.845993,47.613861 
z"/>
<path fill="#0A0A0A" opacity="1.000000" stroke="none" 
	d="
M309.715454,60.041031 
	C306.980774,53.788567 307.645508,49.354317 311.509613,46.207798 
	C315.398071,43.041451 322.768646,42.888630 326.882111,45.889076 
	C331.152527,49.004005 332.230988,55.002522 329.354370,59.640045 
	C326.420898,64.369232 318.912567,66.056374 313.394653,63.103279 
	C312.120483,62.421368 311.090363,61.283497 309.715454,60.041031 
M316.398224,57.381485 
	C320.989227,59.134163 324.430298,57.405136 323.806549,53.565411 
	C323.334778,50.661270 321.358673,49.188118 318.505188,49.923386 
	C314.744904,50.892323 314.230621,53.482140 316.398224,57.381485 
z"/>
<path fill="#0B0B0B" opacity="1.000000" stroke="none" 
	d="
M229.673065,50.941170 
	C232.770172,44.836308 237.159180,42.688862 243.708084,44.003960 
	C248.389664,44.944077 251.400772,47.734756 252.016525,52.621552 
	C252.559113,56.927681 251.232864,60.620594 247.355942,62.798702 
	C242.853470,65.328247 238.052353,65.358925 233.675446,62.575676 
	C229.611908,59.991703 228.400040,55.991951 229.673065,50.941170 
M244.666748,56.073181 
	C245.485184,53.344746 245.114731,50.748913 242.097351,50.120159 
	C240.554321,49.798630 237.891632,50.708233 237.133545,51.929523 
	C236.378845,53.145317 236.985779,56.817799 237.677307,57.014294 
	C239.662552,57.578423 241.992783,56.928493 244.666748,56.073181 
z"/>
<path fill="#090909" opacity="1.000000" stroke="none" 
	d="
M357.981354,51.563576 
	C361.231567,44.418072 367.290344,41.911697 374.072327,44.523300 
	C379.443817,46.591759 381.929810,52.005508 380.063507,57.570335 
	C378.336212,62.720612 373.002960,65.369148 366.613037,64.249947 
	C360.328979,63.149277 357.681732,59.407604 357.981354,51.563576 
M373.552917,53.567192 
	C372.969604,50.616806 371.013031,49.059906 368.278351,50.012211 
	C366.849243,50.509872 364.977905,52.758266 365.123871,54.002750 
	C365.311432,55.601639 367.763000,58.407471 368.467834,58.190262 
	C370.392303,57.597187 371.911804,55.690098 373.552917,53.567192 
z"/>
<path fill="#070707" opacity="1.000000" stroke="none" 
	d="
M304.808167,44.151794 
	C305.614929,45.865852 305.975800,47.549820 306.401459,49.535934 
	C304.347351,49.789162 302.801422,49.979740 300.933899,50.209969 
	C300.933899,54.803566 300.933899,59.227028 300.933899,63.820435 
	C298.501678,63.820435 296.424011,63.820435 293.850037,63.820435 
	C293.850037,60.948662 293.964386,58.172684 293.815887,55.410839 
	C293.683716,52.952568 295.416931,49.246075 290.198303,49.810532 
	C290.198303,47.957821 290.198303,46.354675 290.198303,44.751526 
	C290.546753,44.913242 290.895203,45.074955 291.243652,45.236671 
	C292.195709,43.661030 293.461029,42.191505 294.037811,40.488743 
	C295.451202,36.316013 298.384369,34.975277 305.981842,35.678593 
	C306.049255,37.189251 306.119110,38.755127 306.173798,39.980434 
	C304.045441,40.863091 302.324219,41.576904 300.602997,42.290714 
	C300.691101,42.745136 300.779175,43.199554 300.867249,43.653976 
	C302.032288,43.809883 303.197296,43.965794 304.808167,44.151794 
z"/>
<path fill="#1C1C1C" opacity="1.000000" stroke="none" 
	d="
M341.858459,39.361412 
	C341.859131,47.736900 341.859131,55.646481 341.859131,63.799885 
	C339.250275,63.799885 337.037476,63.799885 334.720398,63.799885 
	C334.720398,54.546097 334.720398,45.514462 334.720398,35.925804 
	C337.258514,37.389874 341.224945,33.406322 341.858459,39.361412 
z"/>
<path fill="#040404" opacity="1.000000" stroke="none" 
	d="
M351.842896,44.127811 
	C352.863983,44.932903 353.881989,45.722370 353.902466,46.536880 
	C354.043640,52.160332 353.976776,57.789009 353.976776,63.709023 
	C351.678497,63.709023 349.604156,63.709023 347.184448,63.709023 
	C347.184448,57.509861 347.184448,51.130932 347.184448,44.362881 
	C348.524384,44.286488 349.951294,44.205132 351.842896,44.127811 
z"/>
<path fill="#121212" opacity="1.000000" stroke="none" 
	d="
M354.172485,39.191467 
	C352.011993,39.983299 349.932739,40.860630 347.960083,40.664692 
	C347.222839,40.591465 346.055359,37.870762 346.322266,36.621830 
	C346.591492,35.362209 348.304230,33.650002 349.546631,33.502651 
	C353.228455,33.065987 355.143829,34.905033 354.172485,39.191467 
z"/>
<path fill="#0B0B0B" opacity="1.000000" stroke="none" 
	d="
M287.790649,58.738510 
	C287.488281,58.885574 287.303955,58.731266 287.090271,58.354683 
	C287.295868,58.290821 287.578491,58.392399 287.790649,58.738510 
z"/>
<path fill="#0B0B0B" opacity="1.000000" stroke="none" 
	d="
M287.258240,63.828629 
	C287.087311,63.558582 287.220398,63.361897 287.564392,63.112564 
	C287.649170,63.303314 287.578186,63.584007 287.258240,63.828629 
z"/>
<path fill="#FFF7F7" opacity="1.000000" stroke="none" 
	d="
M168.153046,49.021095 
	C168.150833,53.515762 168.239685,57.519005 168.072784,61.511559 
	C168.037613,62.353062 167.064590,63.155365 166.523712,63.975731 
	C165.998520,63.146179 165.041077,62.328129 165.018646,61.485199 
	C164.878784,56.229706 164.948105,50.968643 164.064240,45.390751 
	C161.892746,48.623909 159.705032,51.846329 157.554779,55.093552 
	C155.766769,57.793743 154.016174,57.817112 152.224884,55.112755 
	C150.118500,51.932682 148.003403,48.758381 145.149994,44.465000 
	C145.149994,51.634201 145.149994,57.618656 145.149994,63.603111 
	C144.554245,63.830338 143.958511,64.057564 143.362762,64.284790 
	C142.751724,63.185642 141.634644,62.097088 141.611374,60.985630 
	C141.454544,53.497154 141.529648,46.003826 141.529648,37.143620 
	C148.877731,40.477222 149.918457,48.093735 154.917252,52.426311 
	C159.817032,48.393867 160.981949,40.760181 168.153015,36.771526 
	C168.153015,41.621914 168.153015,45.073887 168.153046,49.021095 
z"/>
<path fill="#FFE9E9" opacity="1.000000" stroke="none" 
	d="
M37.140221,54.325394 
	C37.133976,50.341118 35.989967,47.322136 32.001991,47.304478 
	C27.724190,47.285534 26.644262,50.617622 26.507473,54.214859 
	C26.388435,57.345280 26.482687,60.483814 26.482687,63.654739 
	C22.706703,63.311111 21.979650,58.080513 23.514357,44.645168 
	C28.496456,46.866112 34.495514,40.580605 38.831211,47.253540 
	C40.456810,46.303211 41.764935,45.340424 43.219959,44.724861 
	C47.648102,42.851505 52.706818,44.609684 53.739819,49.107578 
	C54.724506,53.395111 54.434330,57.985882 54.552490,62.447369 
	C54.565704,62.946243 53.343666,63.994499 53.114059,63.887508 
	C52.387676,63.549042 51.382736,62.817051 51.337154,62.176643 
	C51.113411,59.033371 51.738705,55.712292 50.926487,52.767822 
	C50.344532,50.658077 48.243668,47.935059 46.330349,47.460125 
	C43.248993,46.695248 41.106705,49.109886 40.842491,52.415474 
	C40.604744,55.389919 40.756287,58.396275 40.497337,61.367748 
	C40.418266,62.275089 39.548698,63.113544 39.041149,63.983543 
	C38.411518,63.072815 37.365997,62.216747 37.237640,61.240131 
	C36.958477,59.116150 37.147152,56.930679 37.140221,54.325394 
z"/>
<path fill="#FFEAEA" opacity="1.000000" stroke="none" 
	d="
M117.448013,58.194305 
	C122.335571,64.488533 127.054008,59.486912 132.063461,57.812645 
	C129.896744,63.489483 125.044456,65.665375 119.784492,63.998390 
	C115.200066,62.545494 112.328629,57.447701 113.261475,52.417747 
	C114.287735,46.884094 118.999031,43.389294 124.487923,44.090046 
	C129.952530,44.787704 133.001465,48.824055 132.735855,55.703808 
	C128.675766,55.703808 124.567635,55.554218 120.483490,55.801262 
	C119.359245,55.869267 118.306633,57.121574 117.448013,58.194305 
M121.888351,47.209263 
	C120.072815,48.629227 118.257278,50.049191 116.441750,51.469154 
	C116.746857,51.820602 117.051971,52.172050 117.357086,52.523499 
	C121.397926,52.523499 125.438774,52.523499 129.876053,52.523499 
	C128.554794,48.678036 126.230080,47.057709 121.888351,47.209263 
z"/>
<path fill="#FFEDED" opacity="1.000000" stroke="none" 
	d="
M74.401123,47.528320 
	C70.882866,48.160385 67.731079,48.965389 63.866123,49.952545 
	C65.708603,45.528542 68.754463,43.845463 72.823448,44.097931 
	C76.820953,44.345966 80.072685,46.273685 80.503487,50.532597 
	C80.944450,54.892006 80.601166,59.330742 80.601166,62.911709 
	C77.840118,63.299999 75.694511,63.704487 73.530441,63.875767 
	C71.559380,64.031769 69.140793,64.646446 67.690407,63.775341 
	C65.720551,62.592228 63.266899,60.178185 63.280708,58.308769 
	C63.294182,56.485573 65.829712,53.868984 67.840416,53.074215 
	C70.465637,52.036541 73.663902,52.448639 77.888702,52.145683 
	C76.538307,50.222736 75.652954,48.961994 74.401123,47.528320 
M77.033569,57.172256 
	C74.786301,53.431118 71.413940,55.550339 68.535660,55.752171 
	C67.671074,55.812798 66.091858,57.742462 66.289314,58.322758 
	C66.674377,59.454414 68.312027,61.174107 69.025620,60.998943 
	C71.692482,60.344315 74.195412,59.021881 77.033569,57.172256 
z"/>
<path fill="#FFEEEE" opacity="1.000000" stroke="none" 
	d="
M191.465271,46.593307 
	C192.480240,45.593525 193.323181,44.917366 194.166122,44.241211 
	C194.623444,44.562378 195.080750,44.883545 195.538055,45.204716 
	C192.234680,53.194839 189.069412,61.247932 185.484360,69.109612 
	C184.923660,70.339127 182.513184,70.929192 180.840836,71.360756 
	C180.017044,71.573364 178.925491,70.748383 177.955093,70.392914 
	C178.657761,69.720650 179.245468,68.738297 180.082352,68.428108 
	C184.449097,66.809509 185.306412,64.945312 183.287247,60.621857 
	C180.869492,55.444939 178.371872,50.305325 176.611053,44.697437 
	C182.494583,47.404732 182.592499,54.282547 186.534561,58.978210 
	C188.207611,54.737751 189.750427,50.827343 191.465271,46.593307 
z"/>
<path fill="#FFF5F5" opacity="1.000000" stroke="none" 
	d="
M96.569748,55.670807 
	C93.239571,55.342129 93.072243,57.079617 93.008476,59.354897 
	C92.965118,60.901939 92.130486,62.426804 91.649704,63.961590 
	C91.092293,62.346085 90.090195,60.740623 90.053429,59.113361 
	C89.882072,51.528049 89.977470,43.936710 90.837296,36.261639 
	C95.027008,41.071945 91.681625,47.174351 93.618904,52.427429 
	C97.648590,53.295872 100.200546,51.780670 101.659409,47.845886 
	C102.177101,46.449570 103.520805,45.359501 104.487427,44.129623 
	C105.008308,44.491257 105.529182,44.852890 106.050064,45.214527 
	C104.585075,48.429142 103.120079,51.643757 101.535080,55.121716 
	C103.058502,57.623524 104.781143,60.452480 106.503784,63.281441 
	C106.267517,63.630928 106.031250,63.980419 105.794991,64.329903 
	C104.480995,63.469498 102.958794,62.808712 101.899643,61.703987 
	C100.111565,59.838974 98.616783,57.692780 96.569748,55.670807 
z"/>
<path fill="#F4F4F4" opacity="1.000000" stroke="none" 
	d="
M212.846405,47.162941 
	C212.495132,43.904079 214.389511,43.497967 216.156509,44.313103 
	C217.509872,44.937420 218.361618,46.649040 219.436462,47.877045 
	C218.054443,48.957653 216.672409,50.038261 215.290375,51.118874 
	C214.475586,49.950539 213.660797,48.782200 212.846405,47.162941 
z"/>
<path fill="#F3F3F3" opacity="1.000000" stroke="none" 
	d="
M316.142273,57.054390 
	C314.230621,53.482140 314.744904,50.892323 318.505188,49.923386 
	C321.358673,49.188118 323.334778,50.661270 323.806549,53.565411 
	C324.430298,57.405136 320.989227,59.134163 316.142273,57.054390 
z"/>
<path fill="#F4F4F4" opacity="1.000000" stroke="none" 
	d="
M244.427094,56.414452 
	C241.992783,56.928493 239.662552,57.578423 237.677307,57.014294 
	C236.985779,56.817799 236.378845,53.145317 237.133545,51.929523 
	C237.891632,50.708233 240.554321,49.798630 242.097351,50.120159 
	C245.114731,50.748913 245.485184,53.344746 244.427094,56.414452 
z"/>
<path fill="#F1F1F1" opacity="1.000000" stroke="none" 
	d="
M373.572327,53.935345 
	C371.911804,55.690098 370.392303,57.597187 368.467834,58.190262 
	C367.763000,58.407471 365.311432,55.601639 365.123871,54.002750 
	C364.977905,52.758266 366.849243,50.509872 368.278351,50.012211 
	C371.013031,49.059906 372.969604,50.616806 373.572327,53.935345 
z"/>
<path fill="#FF4444" opacity="1.000000" stroke="none" 
	d="
M122.272552,47.158932 
	C126.230080,47.057709 128.554794,48.678036 129.876053,52.523499 
	C125.438774,52.523499 121.397926,52.523499 117.357086,52.523499 
	C117.051971,52.172050 116.746857,51.820602 116.441750,51.469154 
	C118.257278,50.049191 120.072815,48.629227 122.272552,47.158932 
z"/>
<path fill="#FF4040" opacity="1.000000" stroke="none" 
	d="
M76.896698,57.561089 
	C74.195412,59.021881 71.692482,60.344315 69.025620,60.998943 
	C68.312027,61.174107 66.674377,59.454414 66.289314,58.322758 
	C66.091858,57.742462 67.671074,55.812798 68.535660,55.752171 
	C71.413940,55.550339 74.786301,53.431118 76.896698,57.561089 
z"/>
</svg>